<svg viewBox="0 0 274 253" xmlns="http://www.w3.org/2000/svg" xml:space="preserve" style="fill-rule:evenodd;clip-rule:evenodd;stroke-linecap:round;stroke-linejoin:round;stroke-miterlimit:1.5">
  <path d="M303.136 499.439H101.948s-1.557 197.682 11.874 215.354c10.069 13.247 152.978 31.102 177.723-2.625 11.591-18.723 11.591-212.729 11.591-212.729Z" style="fill:none;stroke:#000;stroke-width:1px" transform="translate(-101.393 -485.397)"/>
  <path d="M303.136 499.439H101.948s-1.557 197.682 11.874 215.354c10.069 13.247 152.978 31.102 177.723-2.625 11.591-18.723 11.591-212.729 11.591-212.729Z" style="fill:#fefffe" transform="translate(-101.393 -485.397)"/>
  <path d="M303.136 499.439H101.948s3.538 201.174 13.304 221.107c6.164 12.581 166.902 15.116 176.417-2.12 8.268-14.975 11.467-218.987 11.467-218.987Z" style="fill:none;stroke:#000;stroke-width:1.04px" transform="matrix(.9556 0 0 .96595 -92.454 -468.278)"/>
  <path d="M303.136 499.439H101.948s3.538 201.174 13.304 221.107c6.164 12.581 166.902 15.116 176.417-2.12 8.268-14.975 11.467-218.987 11.467-218.987Z" style="fill:#fefffe" transform="matrix(.9556 0 0 .96595 -92.454 -468.278)"/>
  <path d="M283.176 712.168c-54.417 9.256-107.601 9.836-159.306 0l5.356 11.571c46.175 7.499 94.466 6.902 144.404 0l9.546-11.571Z" style="fill:none;stroke:#000;stroke-width:1px" transform="translate(-102.402 -477.604)"/>
  <path d="M283.176 712.168c-54.417 9.256-107.601 9.836-159.306 0l5.356 11.571c46.175 7.499 94.466 6.902 144.404 0l9.546-11.571Z" style="fill:#fefffe" transform="translate(-102.402 -477.604)"/>
  <path d="M283.176 712.168c-54.417 9.256-107.601 9.836-159.306 0l5.356 11.571c46.175 7.499 94.466 6.902 144.404 0l9.546-11.571Z" style="fill:none;stroke:#000;stroke-width:1.11px" transform="matrix(.96458 0 0 .83337 -95.178 -358.934)"/>
  <path d="M283.176 712.168c-54.417 9.256-107.601 9.836-159.306 0l5.356 11.571c46.175 7.499 94.466 6.902 144.404 0l9.546-11.571Z" style="fill:#fefffe" transform="matrix(.96458 0 0 .83337 -95.178 -358.934)"/>
  <g transform="translate(-161.908 -488.159)">
    <ellipse cx="263.057" cy="502.201" rx="100.594" ry="13.542" style="fill:none;stroke:#000;stroke-width:1px"/>
    <ellipse cx="263.057" cy="502.201" rx="100.594" ry="13.542" style="fill:#fefffe"/>
  </g>
  <g transform="translate(-161.908 -483.534)">
    <ellipse cx="263.057" cy="502.201" rx="100.594" ry="13.542" style="fill:none;stroke:#000;stroke-width:1px"/>
  </g>
  <g transform="matrix(.85323 0 0 .81798 -122.766 -184.356)">
    <ellipse cx="263.057" cy="502.201" rx="100.594" ry="13.542" style="fill:none;stroke:#000;stroke-width:.5px"/>
  </g>
  <g>
    <path d="M293 552.641c14.33 1.878 32.567 3.707 46.68 13.448 20.48 14.135 29.568 54.183 10.806 78.222-16.234 20.802-59.317 26.898-61.267 26.817-2.924-.121-.886-20.756 3.781-23.078 1.893-.942 12.005-.758 30.377-7.236 19.219-6.777 35.665-39.82 6.781-59.686-11.664-8.022-30.102-6.312-37.158-3.537-8.047 3.166-12.664-26.61 0-24.95Z" style="fill:none;stroke:#000;stroke-width:.4px" transform="matrix(1.12485 0 0 .96075 -132.357 -475.804)"/>
    <path d="M293 552.641c14.33 1.878 32.567 3.707 46.68 13.448 20.48 14.135 29.568 54.183 10.806 78.222-16.234 20.802-59.317 26.898-61.267 26.817-2.924-.121-.886-20.756 3.781-23.078 1.893-.942 12.005-.758 30.377-7.236 19.219-6.777 35.665-39.82 6.781-59.686-11.664-8.022-30.102-6.312-37.158-3.537-8.047 3.166-12.664-26.61 0-24.95Z" style="fill:#fefffe" transform="matrix(1.12485 0 0 .96075 -132.357 -475.804)"/>
  </g>
  <g>
    <path d="M293.09 554.376c14.33 1.879 30.539 4.084 44.652 13.825 20.48 14.135 28.965 50.427 10.204 74.467-16.235 20.802-55.538 25.409-57.488 25.328-2.924-.121-.499-16.102 4.168-18.425 1.892-.941 10.379-2.279 28.751-8.757 19.219-6.777 35.665-39.82 6.781-59.686-11.664-8.022-30.852-8.493-37.908-5.718-8.047 3.166-11.824-22.694.84-21.034Z" style="fill:none;stroke:#000;stroke-width:.41px" transform="matrix(1.08415 0 0 .96075 -117.676 -475.804)"/>
    <path d="M293.09 554.376c14.33 1.879 30.539 4.084 44.652 13.825 20.48 14.135 28.965 50.427 10.204 74.467-16.235 20.802-55.538 25.409-57.488 25.328-2.924-.121-.499-16.102 4.168-18.425 1.892-.941 10.379-2.279 28.751-8.757 19.219-6.777 35.665-39.82 6.781-59.686-11.664-8.022-30.852-8.493-37.908-5.718-8.047 3.166-11.824-22.694.84-21.034Z" style="fill:#fefffe" transform="matrix(1.08415 0 0 .96075 -117.676 -475.804)"/>
  </g>
</svg>
