<svg viewBox="0 0 274 253" xmlns="http://www.w3.org/2000/svg" xml:space="preserve" style="fill-rule:evenodd;clip-rule:evenodd;stroke-linecap:round;stroke-linejoin:round;stroke-miterlimit:1.5">
  <path d="M303.136 499.439H101.948s-1.557 197.682 11.874 215.354c10.069 13.247 152.978 31.102 177.723-2.625 11.591-18.723 11.591-212.729 11.591-212.729Z" style="fill:none;stroke:#000;stroke-width:1px" transform="translate(-101.392 -485.397)"/>
  <path d="M303.136 499.439H101.948s-1.557 197.682 11.874 215.354c10.069 13.247 152.978 31.102 177.723-2.625 11.591-18.723 11.591-212.729 11.591-212.729Z" style="fill:#fefffe" transform="translate(-101.392 -485.397)"/>
  <g transform="matrix(.9556 0 0 .96595 -92.453 -468.277)">
    <path d="M303.136 499.439H101.948s3.538 201.174 13.304 221.107c6.164 12.581 166.902 15.116 176.417-2.12 8.268-14.975 11.467-218.987 11.467-218.987Z" style="fill:none;stroke:#000;stroke-width:1.04px"/>
    <path d="M303.136 499.439H101.948s3.538 201.174 13.304 221.107c6.164 12.581 166.902 15.116 176.417-2.12 8.268-14.975 11.467-218.987 11.467-218.987Z" style="fill:#fefffe"/>
    <clipPath id="a">
      <path d="M303.136 499.439H101.948s3.538 201.174 13.304 221.107c6.164 12.581 166.902 15.116 176.417-2.12 8.268-14.975 11.467-218.987 11.467-218.987Z"/>
    </clipPath>
    <g clip-path="url(#a)">
      <path d="M588.432 596.753c-62.926 16.379-127.03 16.125-192.256 0v140.182h192.256V596.753Z" style="fill:none;stroke:#000;stroke-width:.48px" transform="matrix(1.09537 0 0 .67623 -336.688 232.332)"/>
      <path d="M588.432 596.753c-62.926 16.379-127.03 16.125-192.256 0v140.182h192.256V596.753Z" style="fill:#450000" transform="matrix(1.09537 0 0 .67623 -336.688 232.332)"/>
    </g>
  </g>
  <path d="M283.176 712.168c-54.417 9.256-107.601 9.836-159.306 0l5.356 11.571c46.175 7.499 94.466 6.902 144.404 0l9.546-11.571Z" style="fill:none;stroke:#000;stroke-width:1px" transform="translate(-102.401 -477.604)"/>
  <path d="M283.176 712.168c-54.417 9.256-107.601 9.836-159.306 0l5.356 11.571c46.175 7.499 94.466 6.902 144.404 0l9.546-11.571Z" style="fill:#fefffe" transform="translate(-102.401 -477.604)"/>
  <path d="M283.176 712.168c-54.417 9.256-107.601 9.836-159.306 0l5.356 11.571c46.175 7.499 94.466 6.902 144.404 0l9.546-11.571Z" style="fill:none;stroke:#000;stroke-width:1.11px" transform="matrix(.96458 0 0 .83337 -95.177 -358.934)"/>
  <path d="M283.176 712.168c-54.417 9.256-107.601 9.836-159.306 0l5.356 11.571c46.175 7.499 94.466 6.902 144.404 0l9.546-11.571Z" style="fill:#fefffe" transform="matrix(.96458 0 0 .83337 -95.177 -358.934)"/>
  <g transform="translate(-161.907 -488.159)">
    <ellipse cx="263.057" cy="502.201" rx="100.594" ry="13.542" style="fill:none;stroke:#000;stroke-width:1px"/>
    <ellipse cx="263.057" cy="502.201" rx="100.594" ry="13.542" style="fill:#fefffe"/>
  </g>
  <g transform="translate(-161.907 -483.534)">
    <ellipse cx="263.057" cy="502.201" rx="100.594" ry="13.542" style="fill:none;stroke:#000;stroke-width:1px"/>
  </g>
  <g>
    <path d="M293 552.641c14.33 1.878 32.567 3.707 46.68 13.448 20.48 14.135 29.568 54.183 10.806 78.222-16.234 20.802-59.317 26.898-61.267 26.817-2.924-.121-.886-20.756 3.781-23.078 1.893-.942 12.005-.758 30.377-7.236 19.219-6.777 35.665-39.82 6.781-59.686-11.664-8.022-30.102-6.312-37.158-3.537-8.047 3.166-12.664-26.61 0-24.95Z" style="fill:none;stroke:#000;stroke-width:.4px" transform="matrix(1.12485 0 0 .96075 -132.356 -475.804)"/>
    <path d="M293 552.641c14.33 1.878 32.567 3.707 46.68 13.448 20.48 14.135 29.568 54.183 10.806 78.222-16.234 20.802-59.317 26.898-61.267 26.817-2.924-.121-.886-20.756 3.781-23.078 1.893-.942 12.005-.758 30.377-7.236 19.219-6.777 35.665-39.82 6.781-59.686-11.664-8.022-30.102-6.312-37.158-3.537-8.047 3.166-12.664-26.61 0-24.95Z" style="fill:#fefffe" transform="matrix(1.12485 0 0 .96075 -132.356 -475.804)"/>
  </g>
  <g>
    <path d="M293.09 554.376c14.33 1.879 30.539 4.084 44.652 13.825 20.48 14.135 28.965 50.427 10.204 74.467-16.235 20.802-55.538 25.409-57.488 25.328-2.924-.121-.499-16.102 4.168-18.425 1.892-.941 10.379-2.279 28.751-8.757 19.219-6.777 35.665-39.82 6.781-59.686-11.664-8.022-30.852-8.493-37.908-5.718-8.047 3.166-11.824-22.694.84-21.034Z" style="fill:none;stroke:#000;stroke-width:.41px" transform="matrix(1.08415 0 0 .96075 -117.675 -475.804)"/>
    <path d="M293.09 554.376c14.33 1.879 30.539 4.084 44.652 13.825 20.48 14.135 28.965 50.427 10.204 74.467-16.235 20.802-55.538 25.409-57.488 25.328-2.924-.121-.499-16.102 4.168-18.425 1.892-.941 10.379-2.279 28.751-8.757 19.219-6.777 35.665-39.82 6.781-59.686-11.664-8.022-30.852-8.493-37.908-5.718-8.047 3.166-11.824-22.694.84-21.034Z" style="fill:#fefffe" transform="matrix(1.08415 0 0 .96075 -117.675 -475.804)"/>
  </g>
  <g>
    <path d="M434.628 523.738h-38.452l13.308 186.609c18.12 10.703 57.606 18.968 62.628 5.517-56.565 2.574-60.528-90.201-37.484-192.126Z" style="fill:none;stroke:#fffcf4;stroke-opacity:.05;stroke-width:.42px" transform="translate(-391.207 -489.467)"/>
    <path d="M434.628 523.738h-38.452l13.308 186.609c18.12 10.703 57.606 18.968 62.628 5.517-56.565 2.574-60.528-90.201-37.484-192.126Z" style="fill:url(#b)" transform="translate(-391.207 -489.467)"/>
  </g>
  <g transform="matrix(1.17971 0 0 1.62823 -645.399 -66.909)">
    <path d="M562.924 136.626c-10.853-.758-1.282-2.973 1.759-20.884 2.323-13.681 4.993-7.053 14.124-19.404 9.604-12.99 7.142-7.747 18.169-15.618 11.027-7.871 9.82-19.082 21.45-10.135 14.186 10.913 22.549 3.913 33.384-1.387 13.6-6.652 15.702 13.352 25.449 13.789 17.505.785.064 18.998 11.999 22.146 11.934 3.148 11.998 3.841 16.491 17.881 4.493 14.039.392 5.862-4.748 14.179-3.283 5.313-132.879-.203-138.077-.567Z" style="fill:none;stroke:#543636;stroke-width:.7px"/>
    <path d="M562.924 136.626c-10.853-.758-1.282-2.973 1.759-20.884 2.323-13.681 4.993-7.053 14.124-19.404 9.604-12.99 7.142-7.747 18.169-15.618 11.027-7.871 9.82-19.082 21.45-10.135 14.186 10.913 22.549 3.913 33.384-1.387 13.6-6.652 15.702 13.352 25.449 13.789 17.505.785.064 18.998 11.999 22.146 11.934 3.148 11.998 3.841 16.491 17.881 4.493 14.039.392 5.862-4.748 14.179-3.283 5.313-132.879-.203-138.077-.567Z" style="fill:#f3efed"/>
    <clipPath id="c">
      <path d="M562.924 136.626c-10.853-.758-1.282-2.973 1.759-20.884 2.323-13.681 4.993-7.053 14.124-19.404 9.604-12.99 7.142-7.747 18.169-15.618 11.027-7.871 9.82-19.082 21.45-10.135 14.186 10.913 22.549 3.913 33.384-1.387 13.6-6.652 15.702 13.352 25.449 13.789 17.505.785.064 18.998 11.999 22.146 11.934 3.148 11.998 3.841 16.491 17.881 4.493 14.039.392 5.862-4.748 14.179-3.283 5.313-132.879-.203-138.077-.567Z"/>
    </clipPath>
    <g clip-path="url(#c)">
      <path d="M613.549 74.295c1.706 20.215-1.406 28.669 10.683 36.501 12.088 7.833 8.48 10.516 20.866 11.327 12.386.812 17.358-2.736 25.208 4.407 7.851 7.144 7.705 16.779 7.705 16.779s9.215-2.489 7.557-9.937c-1.657-7.448 1.512-11.298-4.143-14.643-5.656-3.345-.977-9.127-11.802-7.933-10.824 1.194-9.311 1.644-20.868 0-11.557-1.643-12.004-.29-16.631-5.501-4.628-5.211-5.013-3.742-7.892-10.125-2.88-6.384-12.39-41.09-10.683-20.875Z" style="fill:#d6aa9b" transform="translate(-17.75 -.565)"/>
      <path d="M613.549 74.295c1.706 20.215-1.406 28.669 10.683 36.501 12.088 7.833 8.48 10.516 20.866 11.327 12.386.812 17.358-2.736 25.208 4.407 7.851 7.144 7.705 16.779 7.705 16.779s9.215-2.489 7.557-9.937c-1.657-7.448 1.512-11.298-4.143-14.643-5.656-3.345-.977-9.127-11.802-7.933-10.824 1.194-9.311 1.644-20.868 0-11.557-1.643-12.004-.29-16.631-5.501-4.628-5.211-5.013-3.742-7.892-10.125-2.88-6.384-12.39-41.09-10.683-20.875Z" style="fill:#d6aa9b" transform="translate(42.167 -14.237)"/>
      <path d="M613.549 74.295c1.706 20.215-1.406 28.669 10.683 36.501 12.088 7.833 8.48 10.516 20.866 11.327 12.386.812 17.358-2.736 25.208 4.407 7.851 7.144 7.705 16.779 7.705 16.779s9.215-2.489 7.557-9.937c-1.657-7.448 1.512-11.298-4.143-14.643-5.656-3.345-.977-9.127-11.802-7.933-10.824 1.194-9.311 1.644-20.868 0-11.557-1.643-12.004-.29-16.631-5.501-4.628-5.211-5.013-3.742-7.892-10.125-2.88-6.384-12.39-41.09-10.683-20.875Z" style="fill:#d6aa9b" transform="translate(-77.667 10.583)"/>
    </g>
  </g>
  <g>
    <path d="M562.924 136.626c-.126-10.878-1.282-2.973 1.759-20.884 2.323-13.681 4.993-7.053 14.124-19.404 9.604-12.99 7.142-7.747 18.169-15.618 11.027-7.871 9.82-19.082 21.45-10.135 14.186 10.913 22.549 3.913 33.384-1.387 13.6-6.652 15.702 13.352 25.449 13.789 17.505.785.064 18.998 11.999 22.146 11.934 3.148 11.998 3.841 16.491 17.881 4.493 14.039-3.566 4.474-4.748 14.179-7.899 64.864-137.397 58.082-138.077-.567Z" style="fill:none;stroke:#543636;stroke-width:.7px" transform="matrix(1.17971 0 0 1.62823 -645.399 -66.909)"/>
    <path d="M562.924 136.626c-.126-10.878-1.282-2.973 1.759-20.884 2.323-13.681 4.993-7.053 14.124-19.404 9.604-12.99 7.142-7.747 18.169-15.618 11.027-7.871 9.82-19.082 21.45-10.135 14.186 10.913 22.549 3.913 33.384-1.387 13.6-6.652 15.702 13.352 25.449 13.789 17.505.785.064 18.998 11.999 22.146 11.934 3.148 11.998 3.841 16.491 17.881 4.493 14.039-3.566 4.474-4.748 14.179-7.899 64.864-137.397 58.082-138.077-.567Z" style="fill:#f3efed;fill-opacity:.41" transform="matrix(1.17971 0 0 1.62823 -645.399 -66.909)"/>
  </g>
  <defs>
    <linearGradient id="b" x1="0" y1="0" x2="1" y2="0" gradientUnits="userSpaceOnUse" gradientTransform="rotate(100.15 3.812 457.645) scale(195.5848)">
      <stop offset="0" style="stop-color:#fffcf4;stop-opacity:.16"/>
      <stop offset="1" style="stop-color:#ffd45e;stop-opacity:.16"/>
    </linearGradient>
  </defs>
</svg>
